<svg width="14" height="19" viewBox="0 0 14 19" fill="none" xmlns="http://www.w3.org/2000/svg">
<path d="M12.0625 0.25H1.9375C0.988281 0.25 0.25 1.02344 0.25 1.9375V18.25L7 14.3125L13.75 18.25V1.9375C13.75 1.02344 12.9766 0.25 12.0625 0.25ZM12.0625 15.332L7 12.3789L1.9375 15.332V2.14844C1.9375 2.04297 2.00781 1.9375 2.14844 1.9375H11.8516C11.957 1.9375 12.0625 2.04297 12.0625 2.14844V15.332Z" fill="#1565D8"/>
<path d="M11 3H3V13.5L7 11.5L11 13.5V3.5H3.5V12.5L7 11L10.5 12.5V4H4V12L7 10.5L10 12V4.5H4.5V10.5M4.5 10.5V11.5L7 10L9.5 11.5V5H5V6H9V7H5V8H9V9H5V10H9V10.5H4.5ZM2 2H12V15.5L7 12.5L2 15.5V2ZM11.5 2.5H2.5V14.5L7 12L11.5 14.5V2.5Z" stroke="#1565D8"/>
</svg>
