<svg width="14" height="21" viewBox="0 0 14 21" fill="none" xmlns="http://www.w3.org/2000/svg">
<path d="M12.0625 1.25H1.9375C0.988281 1.25 0.25 2.02344 0.25 2.9375V19.25L7 15.3125L13.75 19.25V2.9375C13.75 2.02344 12.9766 1.25 12.0625 1.25ZM12.0625 16.332L7 13.3789L1.9375 16.332V3.14844C1.9375 3.04297 2.00781 2.9375 2.14844 2.9375H11.8516C11.957 2.9375 12.0625 3.04297 12.0625 3.14844V16.332Z" fill="#1565D8"/>
<rect x="1" y="2" width="12" height="13" fill="#1565D8"/>
<rect x="1" y="14" width="4" height="2" fill="#1565D8"/>
<rect x="9" y="14" width="4" height="2" fill="#1565D8"/>
<rect x="11" y="15" width="2" height="2" fill="#1565D8"/>
<rect x="1" y="15" width="2" height="2" fill="#1565D8"/>
</svg>
